<?xml version="1.0" standalone="no"?>
<!DOCTYPE svg PUBLIC "-//W3C//DTD SVG 20010904//EN"
 "http://www.w3.org/TR/2001/REC-SVG-20010904/DTD/svg10.dtd">
<svg version="1.0" xmlns="http://www.w3.org/2000/svg"
 width="500.000000pt" height="500.000000pt" viewBox="0 0 500.000000 500.000000"
 preserveAspectRatio="xMidYMid meet">
<metadata>
Created by potrace 1.11, written by Peter Selinger 2001-2013
</metadata>
<g transform="translate(0.000000,500.000000) scale(0.100000,-0.100000)"
fill="#000000" stroke="none">
<path d="M1008 4964 c-4 -3 -12 -7 -20 -8 -83 -14 -184 -120 -214 -225 -8 -31
-8 -3124 1 -3171 18 -96 105 -194 202 -226 56 -18 111 -19 1663 -17 883 1
1611 3 1618 4 9 2 12 374 12 1820 0 1640 -2 1817 -16 1823 -20 8 -3239 8
-3246 0z"/>
</g>
</svg>
