<?xml version="1.0" standalone="yes"?>
<svg xmlns="http://www.w3.org/2000/svg" xmlns:xlink="http://www.w3.org/1999/xlink" version="1.1"
    viewBox="0 0 210 210">

<defs>
    <g>
        <path id="a-path"  />
    </g>
</defs>

<style>
    * {
        stroke-width: 10px;
        stroke: none;
        stroke-linejoin: round;
        stroke-linecap: round;
    }

    .outline {
        stroke: #004;
        fill: none;
    }

    .fill {
        fill: #00F;
    }
</style>


<g>
    <g id="p">
        <path class="fill" d="
            m 0, 0
            l 195.08661 54
            l -195.08661 0
            z" />
        <path class="outline" d="
            m 0, 0
            l 195.08661 54
            l -195.08661 0
            z" />
        <path class="fill" d="
            m 0 1.8871275
            l 13.165355 0
            l 0 139.33858
            l -13.165355 0
            z" />
        <path class="outline" d="
            m 0 1.8871275
            l 13.165355 0
            l 0 139.33858
            l -13.165355 0
            z" />
    </g>
    <g id="c"> 
        <path class="fill" d="
            m 91.485565 63.543327
            l -32.188976 38.88189
            l 32.188976 38.88188
            z" />
        <path class="outline" d="
            m 91.485565 63.543327
            l -32.188976 38.88189
            l 32.188976 38.88188
            " />
    </g>
    <g id="t"> 
        <path class="fill" d="
            m 97.34252 63.65354
            l 21.952751 77.54331
            l 21.952759 -77.54331
            z" />
        <path class="outline" d="
            m 97.34252 63.65354
            l 21.952751 0
            l 21.952751 0
            l -21.952751 0
            l 0 77.54331
            " />
    </g>
    <g id="f"> 
        <path class="fill" d="
            m 149.6378 63.65354
            l 44.34645 0
            l -44.34645 77.54331
            z" />
        <path class="outline" d="
            m 149.6378 63.65354
            l 44.34645 0
            l -44.34645 0
            l 0 77.54331
            " />
    </g>
    <g id="a" transform="
        translate(10, 100)
        ">
        <polygon class="fill" points="
            0, 100
            25, 0
            50, 100
            " />
        <polyline class="outline" points="
            1, 95
            25, 0
            49, 95
            " />
    </g>
    <g id="c" transform="
        translate(60, 100)
        ">
        <polygon class="fill" points="
            40, 100
            0, 50
            40, 0
            "/>
        <polyline class="outline" points="
            35, 99
            0, 50
            35, 1
            " />
    </g>
</g>
</svg>
